<svg width="24" height="24" viewBox="0 0 24 24" fill="none" xmlns="http://www.w3.org/2000/svg">
<mask id="mask0_9887_67276" style="mask-type:luminance" maskUnits="userSpaceOnUse" x="2" y="2" width="20" height="19">
<path d="M21.5 2H2.5V21H21.5V2Z" fill="white"/>
</mask>
<g mask="url(#mask0_9887_67276)">
<path d="M18.7565 6.21706C16.25 2.08492 10.8492 0.76238 6.71706 3.26887C2.58492 5.77537 1.26238 11.1762 3.76887 15.3083C6.27537 19.4405 11.6762 20.763 15.8083 18.2565C19.9405 15.75 21.263 10.3492 18.7565 6.21706ZM12.9673 13.5729C11.4177 14.5128 9.39247 14.0169 8.45252 12.4673C7.51255 10.9177 8.00851 8.89247 9.55809 7.95252C11.1077 7.01257 13.1329 7.50851 14.0729 9.05809C15.0128 10.6077 14.5169 12.6329 12.9673 13.5729Z" fill="#62C98C"/>
</g>
</svg>
