<svg width="24" height="24" viewBox="0 0 24 24" fill="none" xmlns="http://www.w3.org/2000/svg">
<g clip-path="url(#clip0_9887_67297)">
<mask id="mask0_9887_67297" style="mask-type:luminance" maskUnits="userSpaceOnUse" x="-1" y="6" width="26" height="11">
<path d="M25 6H-1V17H25V6Z" fill="white"/>
</mask>
<g mask="url(#mask0_9887_67297)">
<path d="M21.8263 9.28317C18.6319 6.1752 13.5087 6.24969 10.4059 9.44903C9.01073 10.8876 6.70713 10.9213 5.27073 9.52369C4.39052 8.66725 2.98346 8.68755 2.12824 9.56937C1.27303 10.4512 1.29359 11.8605 2.17381 12.717C5.36795 15.8248 10.4912 15.7503 13.594 12.551C14.9892 11.1124 17.2929 11.0789 18.7293 12.4764C19.6095 13.3329 21.0166 13.3126 21.8718 12.4308C22.727 11.5489 22.7064 10.1396 21.8263 9.28317Z" fill="#FA5757"/>
</g>
</g>
<defs>
<clipPath id="clip0_9887_67297">
<rect width="24" height="24" fill="white"/>
</clipPath>
</defs>
</svg>
