<svg width="24" height="24" viewBox="0 0 24 24" fill="none" xmlns="http://www.w3.org/2000/svg">
<mask id="mask0_9887_67282" style="mask-type:luminance" maskUnits="userSpaceOnUse" x="1" y="1" width="22" height="21">
<path d="M22.5 1H1.5V22H22.5V1Z" fill="white"/>
</mask>
<g mask="url(#mask0_9887_67282)">
<path d="M19.9908 11.9124C21.104 11.7095 21.8625 10.639 21.6858 9.52073C21.5086 8.40303 20.4622 7.66148 19.3488 7.86454L16.6609 8.35479C16.1041 8.45633 15.6361 8.77479 15.3294 9.20754C15.0228 9.6403 14.8776 10.1875 14.9661 10.7463C15.1435 11.8641 16.1899 12.6056 17.3032 12.4026L19.9908 11.9124Z" fill="#E4A1D6"/>
<path d="M6.5508 14.3598C7.66423 14.1566 8.4228 13.0861 8.24569 11.9681C8.06832 10.8504 7.02191 10.1088 5.90842 10.3118L3.2205 10.802C2.66371 10.9036 2.19574 11.222 1.88907 11.6548C1.5824 12.0875 1.43703 12.6346 1.52573 13.1935C1.70309 14.3112 2.74952 15.0528 3.86299 14.8499L6.5508 14.3598Z" fill="#E4A1D6"/>
<path d="M14.9072 19.083L14.479 16.3845C14.3016 15.2668 13.2552 14.5252 12.1419 14.7283C11.5851 14.8299 11.1171 15.1483 10.8104 15.581C10.5038 16.0138 10.3584 16.5611 10.4471 17.1198L10.8753 19.8183C11.0527 20.936 12.0991 21.6776 13.2124 21.4746C14.3259 21.2715 15.0845 20.2007 14.9072 19.083Z" fill="#E4A1D6"/>
<path d="M12.4743 5.38824L12.0461 2.68974C11.8687 1.57206 10.8223 0.830506 9.7088 1.03344C9.15199 1.135 8.68403 1.45346 8.37737 1.88621C8.07057 2.31913 7.92532 2.86601 8.01402 3.425L8.44223 6.1235C8.6196 7.2412 9.66601 7.98274 10.7795 7.7798C11.8929 7.57657 12.6515 6.5061 12.4743 5.38824Z" fill="#E4A1D6"/>
</g>
</svg>
