<svg width="24" height="24" viewBox="0 0 24 24" fill="none" xmlns="http://www.w3.org/2000/svg">
<mask id="mask0_9887_67309" style="mask-type:luminance" maskUnits="userSpaceOnUse" x="3" y="2" width="18" height="18">
<path d="M21 2H3V20H21V2Z" fill="white"/>
</mask>
<g mask="url(#mask0_9887_67309)">
<path d="M19.6659 16.8467C19.8906 16.5726 19.9416 16.1965 19.8009 15.8719L17.8068 11.2949L20.6137 6.90776C20.811 6.60188 20.8123 6.20784 20.6196 5.89955C20.4814 5.57193 20.0678 5.41805 19.7032 5.46351L14.5345 6.10157L11.2661 2.32578C11.0337 2.05856 10.6735 1.94254 10.329 2.02734C9.98559 2.11147 9.71852 2.37935 9.63453 2.72417L8.43733 7.73115L3.5743 9.78797C3.24253 9.92864 3.01867 10.2467 3.00121 10.6077C2.99128 10.8054 3.04294 10.9971 3.14366 11.1582C3.22703 11.2915 3.34413 11.4053 3.4884 11.4842L7.89275 13.9147L8.18244 18.9372C8.20337 19.298 8.43079 19.6144 8.76213 19.753C9.09522 19.8919 9.47847 19.8287 9.74888 19.59L13.7056 16.0907L18.7382 17.1729C19.0847 17.2456 19.4428 17.1211 19.6659 16.8467Z" fill="#FFE8A4"/>
</g>
</svg>
